<svg width="235" height="168" viewBox="0 0 235 168" fill="none" xmlns="http://www.w3.org/2000/svg">
<g clip-path="url(#clip0_502_33)">
<path d="M116.963 -4.33266L100.254 24.4069H66.836L50.127 -4.33266L66.836 -33.0723L100.254 -33.0723L116.963 -4.33266Z" fill="#99CDFF" stroke="white" stroke-width="6.93217"/>
<path d="M66.8363 24.4069L50.1272 53.1465H16.7091L0 24.4069L16.7091 -4.3327L50.1272 -4.3327L66.8363 24.4069Z" fill="#BDDEFF" stroke="white" stroke-width="6.93217"/>
<path d="M217.218 -4.33266L200.509 24.4069H167.091L150.381 -4.33266L167.091 -33.0723L200.509 -33.0723L217.218 -4.33266Z" fill="#007CF5" stroke="white" stroke-width="6.93217"/>
<path d="M116.963 53.1478L100.254 81.8874H66.836L50.127 53.1477L66.836 24.4081L100.254 24.4081L116.963 53.1478Z" fill="#85C3FF" stroke="white" stroke-width="6.93217"/>
<path d="M83.5428 110.643L66.8338 139.382H33.4156L16.7065 110.643L33.4156 81.9031L66.8338 81.9031L83.5428 110.643Z" fill="#1089FF" stroke="white" stroke-width="6.93217"/>
<path d="M217.218 53.1478L200.509 81.8874H167.091L150.381 53.1477L167.091 24.4081L200.509 24.4081L217.218 53.1478Z" fill="#006CD6" stroke="white" stroke-width="6.93217"/>
<path d="M217.218 110.626L200.509 139.366H167.091L150.381 110.626L167.091 81.8863L200.509 81.8863L217.218 110.626Z" fill="#0062C2" stroke="white" stroke-width="6.93217"/>
<path d="M167.091 139.365L150.382 168.104H116.963L100.254 139.365L116.963 110.625L150.382 110.625L167.091 139.365Z" fill="#61B1FF" stroke="white" stroke-width="6.93217"/>
<path d="M167.091 81.886L150.382 110.626H116.963L100.254 81.886L116.963 53.1464L150.382 53.1464L167.091 81.886Z" fill="#339AFF" stroke="white" stroke-width="6.93217"/>
<path d="M167.091 24.4069L150.382 53.1465H116.963L100.254 24.4069L116.963 -4.3327L150.382 -4.3327L167.091 24.4069Z" fill="#1089FF" stroke="white" stroke-width="6.93217"/>
<path d="M267.344 24.4069L250.635 53.1465H217.217L200.507 24.4069L217.217 -4.3327L250.635 -4.3327L267.344 24.4069Z" fill="#0053A3" stroke="white" stroke-width="6.93217"/>
<path d="M267.345 81.8859L250.636 110.626H217.218L200.509 81.8859L217.218 53.1463L250.636 53.1463L267.345 81.8859Z" fill="#003466" stroke="white" stroke-width="6.93217"/>
</g>
<defs>
<clipPath id="clip0_502_33">
<rect width="235" height="168" fill="white"/>
</clipPath>
</defs>
</svg>
